<?xml version="1.0" encoding="utf-8"?>
<!-- Generator: Adobe Illustrator 19.1.0, SVG Export Plug-In . SVG Version: 6.00 Build 0)  -->
<!DOCTYPE svg PUBLIC "-//W3C//DTD SVG 1.1//EN" "http://www.w3.org/Graphics/SVG/1.1/DTD/svg11.dtd">
<svg version="1.1" id="Layer_1" xmlns="http://www.w3.org/2000/svg" xmlns:xlink="http://www.w3.org/1999/xlink" x="0px" y="0px"
	 viewBox="0 0 72 72" style="enable-background:new 0 0 72 72;" xml:space="preserve">
<style type="text/css">
	.st0{fill:#FECC4E;}
	.st1{display:none;fill:#FECC4E;}
	.st2{fill:#F3F5F4;}
	.st3{display:none;fill:#F3F5F4;}
	.st4{fill:#6F4D04;}
	.st5{display:none;fill:#6C4C0A;}
	.st6{fill:#6C4C0A;}
</style>
<circle class="st0" cx="36" cy="36" r="36"/>
<path class="st1" d="M73,31c0,4.333,0,8.667,0,13c-2.564,5.282-4.178,10.995-8.028,15.687C59.17,66.756,51.442,70.412,43,73
	c-4.333,0-8.667,0-13,0c-0.532-0.344-1.02-0.843-1.603-1.009C15.274,68.237,6.594,59.897,2.381,46.909
	C2.13,46.135,1.928,45.297,1,45c0-5.333,0-10.667,0-16c0.4-0.485,0.996-0.908,1.173-1.464C6.253,14.696,14.705,6.263,27.536,2.173
	C28.092,1.996,28.515,1.4,29,1c4.667,0,9.333,0,14,0c7.334,2.467,14.384,5.277,19.974,11.075C68.192,17.488,70.557,24.22,73,31z
	 M53.025,18.161c-2.34-1.425-4.683-1.687-7.032-0.02c-3.868,0.962-5.706,3.863-6.644,7.366c-1.565,5.84,2.389,11.92,8.419,13.24
	c5.714,1.25,11.521-2.477,12.925-8.299C62.077,24.709,58.779,19.424,53.025,18.161z M19.993,18.142
	c-3.868,0.962-5.706,3.863-6.644,7.366c-1.565,5.84,2.389,11.92,8.419,13.24c5.714,1.251,11.521-2.477,12.925-8.299
	c1.385-5.74-1.913-11.025-7.667-12.288C24.685,16.737,22.342,16.474,19.993,18.142z M58.721,51.048
	c-0.333-1.316-1.171-1.878-2.429-2.176c-5.381-1.277-16.935,3.025-20.258,7.557c-0.854,1.165-1.449,2.281-0.351,3.543
	c1.266,1.455,2.632,1.138,3.878-0.03c4.441-4.163,9.698-6.144,15.771-6.122C57.146,53.827,58.543,53.099,58.721,51.048z"/>
<path class="st2" d="M27.025,18.161c5.754,1.263,9.052,6.548,7.667,12.288c-1.404,5.821-7.21,9.549-12.925,8.299
	c-6.03-1.32-9.984-7.4-8.419-13.24c0.939-3.503,2.776-6.404,6.644-7.367C22.05,17.536,24.753,17.234,27.025,18.161z"/>
<path class="st3" d="M53.025,18.161c5.754,1.263,9.052,6.548,7.667,12.288c-1.404,5.821-7.21,9.549-12.925,8.299
	c-6.03-1.32-9.984-7.4-8.419-13.24c0.939-3.503,2.776-6.404,6.644-7.367c-1.121,3.07-1.903,6.106,1.673,8.177
	c2.357,1.365,4.488,0.735,6.148-1.237C55.922,22.575,55.067,20.267,53.025,18.161z"/>
<path class="st4" d="M58.721,51.048c-0.178,2.051-1.575,2.779-3.389,2.772c-6.073-0.022-11.33,1.959-15.771,6.122
	c-1.246,1.168-2.613,1.485-3.878,0.03c-1.098-1.262-0.503-2.378,0.351-3.543c3.323-4.532,14.877-8.834,20.258-7.557
	C57.55,49.17,58.388,49.732,58.721,51.048z"/>
<path class="st5" d="M27.025,18.161c2.042,2.106,2.897,4.413,0.788,6.919c-1.659,1.972-3.79,2.602-6.148,1.237
	c-3.575-2.07-2.794-5.106-1.673-8.177C22.342,16.474,24.685,16.737,27.025,18.161z"/>
<path class="st5" d="M53.025,18.161c2.042,2.106,2.897,4.413,0.788,6.919c-1.659,1.972-3.79,2.602-6.148,1.237
	c-3.575-2.07-2.794-5.106-1.673-8.177C48.342,16.474,50.685,16.737,53.025,18.161z"/>
<ellipse class="st6" cx="23.872" cy="23.016" rx="4.878" ry="5.445"/>
<path class="st2" d="M52.942,17.897c5.754,1.263,9.052,6.548,7.667,12.288c-1.404,5.821-7.21,9.549-12.925,8.299
	c-6.03-1.32-9.984-7.4-8.419-13.24c0.939-3.503,2.776-6.404,6.644-7.367C47.967,17.272,50.67,16.97,52.942,17.897z"/>
<ellipse class="st6" cx="49.788" cy="22.752" rx="4.878" ry="5.445"/>
</svg>
