<?xml version="1.0" encoding="utf-8"?>
<!-- Generator: Adobe Illustrator 19.1.0, SVG Export Plug-In . SVG Version: 6.00 Build 0)  -->
<!DOCTYPE svg PUBLIC "-//W3C//DTD SVG 1.1//EN" "http://www.w3.org/Graphics/SVG/1.1/DTD/svg11.dtd">
<svg version="1.1" id="Layer_1" xmlns="http://www.w3.org/2000/svg" xmlns:xlink="http://www.w3.org/1999/xlink" x="0px" y="0px"
	 viewBox="0 0 72 72" style="enable-background:new 0 0 72 72;" xml:space="preserve">
<style type="text/css">
	.st0{fill:#FDCB4E;}
	.st1{display:none;fill:#FDCB4E;}
	.st2{fill:#FBAB41;}
	.st3{fill:#6F4D05;}
	.st4{fill:#765308;}
	.st5{fill:#714E05;}
</style>
<circle class="st0" cx="36.799" cy="32.503" r="32.432"/>
<path class="st1" d="M30,1c4.748-0.939,13.5-0.398,18.937,2.061c13.879,5.662,22.248,20.342,19.902,35.06
	C66.543,52.519,54.145,63.979,39.952,64.82c-1.452-9.073-1.45-9.068,7.543-11.99c0.622-0.202,1.268-0.452,1.783-0.839
	c1.134-0.851,1.834-2.009,1.414-3.461c-0.399-1.38-1.649-1.456-2.842-1.518c-2.019-0.104-3.939,0.306-5.895,0.81
	c-3.857,0.992-7.793,1.671-11.66,2.628c-2.394,0.593-2.97-0.095-2.548-2.478c0.526-2.965,0.655-6-1.223-8.665
	c-1.13-1.605-2.593-2.732-4.656-1.948c-1.94,0.738-1.337,2.345-1.052,3.829c0.657,3.419-0.595,6.142-3.016,8.538
	c-1.646,1.629-3.065,3.488-4.585,5.245C-0.269,38.685,4.066,19.183,15.763,8.794C19.952,5.073,23.877,2.625,30,1z M47.468,16.991
	c-0.332,0-0.666-0.025-0.995,0.004c-2.282,0.198-5.203-0.085-6.241,2.112c-1.265,2.679,3.109,0.531,3.977,1.566
	c0.31,0.369-0.075,2.277-0.05,2.936c0.102,2.724-0.016,5.22,3.072,5.235c2.822,0.014,2.946-3.307,2.797-5.865
	c-0.157-2.699-0.331-4.275,2.049-3.113c0.915,0.447,4.154,2.536,4.643,1.491c0.638-1.361-0.459-2.123-1.562-2.637
	C52.725,17.585,50.177,16.917,47.468,16.991z M28.058,8.976c-2.169-0.174-4.426,0.433-6.624,1.224
	c-1.092,0.393-2.261,1.014-1.68,2.528c0.435,1.133,1.462,1.295,2.499,0.945c4.086-1.382,8.151-1.452,12.241-0.009
	c0.852,0.3,1.688,0.068,2.129-0.783c0.625-1.205-0.221-1.906-1.107-2.366C33.257,9.343,30.81,8.905,28.058,8.976z M33.708,33.259
	c-1.518,0.366-4.482-0.589-4.422,2.154c0.056,2.542,2.858,1.473,4.501,1.532c2.902,0.104,5.548,0.869,8.023,2.338
	c1.234,0.733,2.731,2.184,3.769,0.234c0.943-1.772-1.037-2.55-2.196-3.32C40.552,34.316,37.315,33.598,33.708,33.259z
	 M23.877,21.938c0.102,2.583,1.035,4.849,3.793,4.919c3.082,0.078,4.185-2.406,4.112-5.071c-0.067-2.451-1.219-4.739-4.051-4.652
	C24.947,17.219,24.012,19.422,23.877,21.938z"/>
<path class="st2" d="M22,71.5c-7.833-3.125-10.427-8.292-8.784-16.529c1.52-1.756,2.939-3.616,4.585-5.245
	c2.421-2.396,3.673-5.119,3.016-8.538c-0.285-1.485-0.888-3.092,1.052-3.829c2.062-0.784,3.525,0.343,4.656,1.948
	c1.878,2.666,1.748,5.7,1.223,8.665c-0.198,1.117-1.947,3.238-1.622,3.653c0.368,0.47,2.897-0.86,4.169-1.175
	c3.867-0.957,7.803-1.636,11.66-2.628c1.956-0.503,3.876-0.914,5.895-0.81c1.193,0.062,2.444,0.138,2.842,1.518
	c0.42,1.452-0.433,1.744-1.567,2.596c-0.515,0.387-11.569,2.938-11.569,2.938c1.132,0.312,1.986,1.646,1.986,3.052
	c-0.188,1-0.125,1.552-1.417,2.448c1.667,0.938,1,3.125,1,3.125s0.083,0.896-1.282,2.146c0.819,0.062,0.908,0.953,0.24,2.667
	C36.125,72.292,24.986,72.051,22,71.5z"/>
<path class="st3" d="M47.468,16.987c2.709-0.07,5.257,0.598,7.69,1.733c1.103,0.514,2.2,1.276,1.562,2.637
	c-0.49,1.045-1.728,0.955-2.643,0.509c-2.639-1.99-10.868-1.115-10.868-1.115s-4.243,1.037-2.977-1.643
	c1.038-2.197,3.959-1.914,6.241-2.112C46.802,16.966,47.136,16.991,47.468,16.987z"/>
<path class="st4" d="M28.058,8.976c2.752-0.071,5.199,0.367,7.459,1.539c0.886,0.459,1.732,1.16,1.107,2.366
	c-0.442,0.852-1.278,1.084-2.129,0.783c-4.089-1.443-8.155-1.373-12.241,0.009c-1.036,0.351-2.064,0.188-2.499-0.945
	c-0.581-1.514,0.587-2.134,1.68-2.528C23.632,9.409,25.889,8.801,28.058,8.976z"/>
<path class="st4" d="M33.708,33.259c3.607,0.339,6.844,1.057,9.675,2.938c1.159,0.77,3.139,1.548,2.196,3.32
	c-1.038,1.95-2.535,0.499-3.769-0.234c-2.475-1.469-5.12-2.234-8.023-2.338c-1.643-0.059-4.445,1.01-4.501-1.532
	C29.226,32.67,32.19,33.625,33.708,33.259z"/>
<path class="st5" d="M23.877,21.938c0.135-2.515,1.07-4.719,3.855-4.804c2.832-0.087,3.984,2.201,4.051,4.652
	c0.073,2.665-1.03,5.149-4.112,5.071C24.912,26.787,23.979,24.521,23.877,21.938z"/>
<path class="st5" d="M43.252,23.924c0.135-2.515,1.07-4.719,3.855-4.804c2.832-0.087,3.984,2.201,4.051,4.652
	c0.073,2.665-1.03,5.149-4.112,5.071C44.287,28.773,43.354,26.507,43.252,23.924z"/>
</svg>
