<?xml version="1.0" encoding="utf-8"?>
<!-- Generator: Adobe Illustrator 19.1.0, SVG Export Plug-In . SVG Version: 6.00 Build 0)  -->
<!DOCTYPE svg PUBLIC "-//W3C//DTD SVG 1.1//EN" "http://www.w3.org/Graphics/SVG/1.1/DTD/svg11.dtd">
<svg version="1.1" id="Layer_2" xmlns="http://www.w3.org/2000/svg" xmlns:xlink="http://www.w3.org/1999/xlink" x="0px" y="0px"
	 viewBox="-11 13.5 47.5 47.5" style="enable-background:new -11 13.5 47.5 47.5;" xml:space="preserve">
<style type="text/css">
	.st0{fill:#FFCC4D;}
	.st1{fill:#343734;}
	.st2{fill:#6B4C1B;}
	.st3{fill:#FEFDFB;}
	.st4{fill:#FCCA4E;}
	.st5{fill:#664500;}
</style>
<g id="g20" transform="translate(36,19)">
	<path id="path22" class="st0" d="M-44.133,18.521c0-11.736,9.514-21.25,21.25-21.25c11.735,0,21.25,9.514,21.25,21.25
		c0,11.735-9.515,21.25-21.25,21.25C-34.619,39.771-44.133,30.256-44.133,18.521"/>
</g>
<path class="st1" d="M-6.572,29.435c-0.249-1.71-0.249-1.71,1.12-1.864c0.914,0.32,1.692-0.072,2.493-0.442
	c2.793-1.291,5.792-1.185,8.738-1.045c1.135,0.054,2.325,0.664,3.334,1.278c1.89,1.151,3.911,0.846,5.91,0.78
	c0.549-0.018,1.115-0.376,1.622-0.667c2.472-1.419,5.159-1.838,7.912-1.429c1.61,0.239,3.293,0.428,4.768,1.247
	c0.711,0.395,1.428,0.451,2.192,0.277c1.305,0.172,1.305,0.172,1.061,1.858c-1.619,0.772-2.195,1.19-2.313,2.776
	c-0.165,2.207-0.527,4.468-2.335,6.083c-1.304,1.087-4.463,1.891-5.754,1.625c-2.112-0.435-4.336-0.573-5.897-2.436
	c-1.134-1.354-1.274-3-1.545-4.597c-0.218-1.289-0.584-1.948-1.56-1.978c-1.115-0.034-1.692,0.474-1.838,1.666
	c-0.161,1.311-0.356,2.691-0.912,3.862c-0.841,1.771-2.549,2.635-4.415,3.013C2.5,40.375-1.655,39.341-2.924,37.01
	c-0.354-0.65-0.707-1.314-0.793-2.042c-0.088-0.748-0.301-1.492-0.323-2.223C-4.092,30.977-4.872,29.883-6.572,29.435z"/>
<path class="st2" d="M8.266,50.149c-2.305-1.089-4.292-2.568-5.862-4.608c-0.419-0.544-0.66-1.152-0.222-1.583
	c0.378-0.372,0.981-0.147,1.486,0.258c1.32,1.059,2.913,1.517,4.496,2.079c2.534,1.249,7.585,1.08,10.354-0.188
	c1.342-0.531,2.801-0.95,3.919-1.966c0.444-0.404,0.996-0.522,1.388-0.155c0.369,0.346,0.192,0.918-0.107,1.322
	c-1.347,1.821-3.048,3.239-5.027,4.329c-0.34,0.187-0.701,0.335-1.052,0.502c-0.156-0.059-0.248-0.181-0.346-0.311
	c-0.281-0.376-0.004-1.166-0.567-1.207c-0.772-0.056-1.598,0.091-2.326,0.389c-0.52,0.213-0.324,0.833-0.387,1.293
	c-0.109,0.791,0.303,1.067-0.523,1.698c-0.393-0.013-0.795,0.25-1.139,0c-0.719-0.507-0.501-0.883-0.524-1.568
	c-0.051-1.535-0.724-2.088-2.267-1.873c-0.403,0.056-0.529,0.256-0.601,0.597C8.87,49.58,8.803,50.033,8.266,50.149z"/>
<path class="st3" d="M8.266,50.399v-3.316c0.567,0.458,2.48,0.875,4.086,0.75c0,0-0.007,3.575,0,4.411
	C10.399,53.084,8.676,52.537,8.266,50.399z"/>
<path class="st4" d="M17.556,34.885c-0.324-1.374-0.88-3.397-0.353-4.78c0.445-1.167,2.364-1.607,3.484-1.678
	c1.674-0.106,3.589-0.076,5.237,0.242c0.529,0.102,1.321,0.228,1.699,0.677c0.416,0.493,0.29,1.312,0.27,1.9
	c-0.056,1.622-0.292,3.452-1.065,4.907c-0.596,1.124-1.772,1.164-2.907,1.27c-1.429,0.134-3.166,0.265-4.462-0.499
	C18.832,36.555,17.731,35.628,17.556,34.885z"/>
<path class="st4" d="M4.598,37.477c-1.413,0.338-2.823-0.134-4.191-0.504c-1.469-0.397-1.581-1.876-1.927-2.967
	c-0.373-1.174-0.384-2.497-0.316-3.778c0.038-0.716,0.421-1.186,0.998-1.307c1.857-0.388,3.717-0.974,5.642-0.624
	c1.143,0.208,2.302,0.418,3.341,1.022c0.578,0.336,0.914,0.789,0.821,1.44C9.375,35.125,7.667,36.938,4.598,37.477z"/>
<g id="g24" transform="translate(11,24)">
	<path id="path26" class="st5" d="M-3.833,10.453c0,0,0,2.269-2.004,2.269s-2.004-2.269-2.004-2.269V8.184c0,0,0-2.269,2.004-2.269
		s2.004,2.269,2.004,2.269V10.453z"/>
</g>
<g id="g24_1_" transform="translate(11,24)">
	<path id="path26_1_" class="st5" d="M11.456,10.44c0,0,0,2.242-1.98,2.242s-1.98-2.242-1.98-2.242V8.198c0,0,0-2.242,1.98-2.242
		s1.98,2.242,1.98,2.242V10.44z"/>
</g>
<g id="Layer_3">
</g>
<path class="st3" d="M17.628,50.608v-3.316c-0.567,0.458-2.48,0.875-4.086,0.75c0,0,0.007,3.323,0,4.158
	C15.495,53.04,17.218,52.746,17.628,50.608z"/>
</svg>
